<mxfile host="Electron" agent="Mozilla/5.0 (Windows NT 10.0; Win64; x64) AppleWebKit/537.36 (KHTML, like Gecko) draw.io/24.7.17 Chrome/128.0.6613.36 Electron/32.0.1 Safari/537.36" version="24.7.17">
  <diagram name="Page-1" id="qqGMOKMbEa1l0G2KRabw">
    <mxGraphModel dx="2444" dy="932" grid="1" gridSize="10" guides="1" tooltips="1" connect="1" arrows="1" fold="1" page="1" pageScale="1" pageWidth="850" pageHeight="1100" math="0" shadow="0">
      <root>
        <mxCell id="0" />
        <mxCell id="1" parent="0" />
        <mxCell id="nkQmbLQ5aovZRFHdUpuh-3" value="" style="edgeStyle=orthogonalEdgeStyle;rounded=0;orthogonalLoop=1;jettySize=auto;html=1;" edge="1" parent="1" source="nkQmbLQ5aovZRFHdUpuh-4" target="nkQmbLQ5aovZRFHdUpuh-2">
          <mxGeometry relative="1" as="geometry">
            <Array as="points">
              <mxPoint x="410" y="270" />
              <mxPoint x="410" y="270" />
            </Array>
          </mxGeometry>
        </mxCell>
        <mxCell id="nkQmbLQ5aovZRFHdUpuh-1" value="START" style="strokeWidth=2;html=1;shape=mxgraph.flowchart.start_1;whiteSpace=wrap;" vertex="1" parent="1">
          <mxGeometry x="360" y="160" width="100" height="60" as="geometry" />
        </mxCell>
        <mxCell id="nkQmbLQ5aovZRFHdUpuh-7" value="" style="edgeStyle=orthogonalEdgeStyle;rounded=0;orthogonalLoop=1;jettySize=auto;html=1;" edge="1" parent="1" source="nkQmbLQ5aovZRFHdUpuh-2" target="nkQmbLQ5aovZRFHdUpuh-6">
          <mxGeometry relative="1" as="geometry" />
        </mxCell>
        <mxCell id="nkQmbLQ5aovZRFHdUpuh-2" value="login" style="rhombus;whiteSpace=wrap;html=1;strokeWidth=2;" vertex="1" parent="1">
          <mxGeometry x="370" y="380" width="80" height="80" as="geometry" />
        </mxCell>
        <mxCell id="nkQmbLQ5aovZRFHdUpuh-5" value="" style="edgeStyle=orthogonalEdgeStyle;rounded=0;orthogonalLoop=1;jettySize=auto;html=1;" edge="1" parent="1" source="nkQmbLQ5aovZRFHdUpuh-1" target="nkQmbLQ5aovZRFHdUpuh-4">
          <mxGeometry relative="1" as="geometry">
            <mxPoint x="410" y="220" as="sourcePoint" />
            <mxPoint x="410" y="290" as="targetPoint" />
            <Array as="points" />
          </mxGeometry>
        </mxCell>
        <mxCell id="nkQmbLQ5aovZRFHdUpuh-28" value="" style="edgeStyle=orthogonalEdgeStyle;rounded=0;orthogonalLoop=1;jettySize=auto;html=1;" edge="1" parent="1" source="nkQmbLQ5aovZRFHdUpuh-4" target="nkQmbLQ5aovZRFHdUpuh-8">
          <mxGeometry relative="1" as="geometry" />
        </mxCell>
        <mxCell id="nkQmbLQ5aovZRFHdUpuh-33" value="" style="edgeStyle=orthogonalEdgeStyle;rounded=0;orthogonalLoop=1;jettySize=auto;html=1;" edge="1" parent="1" source="nkQmbLQ5aovZRFHdUpuh-4" target="nkQmbLQ5aovZRFHdUpuh-32">
          <mxGeometry relative="1" as="geometry">
            <Array as="points">
              <mxPoint x="500" y="300" />
              <mxPoint x="500" y="300" />
            </Array>
          </mxGeometry>
        </mxCell>
        <mxCell id="nkQmbLQ5aovZRFHdUpuh-4" value="Input pilihan" style="shape=parallelogram;html=1;strokeWidth=2;perimeter=parallelogramPerimeter;whiteSpace=wrap;rounded=1;arcSize=12;size=0.23;" vertex="1" parent="1">
          <mxGeometry x="360" y="270" width="100" height="60" as="geometry" />
        </mxCell>
        <mxCell id="nkQmbLQ5aovZRFHdUpuh-15" value="" style="edgeStyle=orthogonalEdgeStyle;rounded=0;orthogonalLoop=1;jettySize=auto;html=1;" edge="1" parent="1" source="nkQmbLQ5aovZRFHdUpuh-6" target="nkQmbLQ5aovZRFHdUpuh-14">
          <mxGeometry relative="1" as="geometry" />
        </mxCell>
        <mxCell id="nkQmbLQ5aovZRFHdUpuh-6" value="masukkan password dan username" style="shape=parallelogram;perimeter=parallelogramPerimeter;whiteSpace=wrap;html=1;fixedSize=1;strokeWidth=2;" vertex="1" parent="1">
          <mxGeometry x="480" y="390" width="170" height="60" as="geometry" />
        </mxCell>
        <mxCell id="nkQmbLQ5aovZRFHdUpuh-12" value="" style="edgeStyle=orthogonalEdgeStyle;rounded=0;orthogonalLoop=1;jettySize=auto;html=1;" edge="1" parent="1" source="nkQmbLQ5aovZRFHdUpuh-8" target="nkQmbLQ5aovZRFHdUpuh-11">
          <mxGeometry relative="1" as="geometry" />
        </mxCell>
        <mxCell id="nkQmbLQ5aovZRFHdUpuh-8" value="register" style="rhombus;whiteSpace=wrap;html=1;strokeWidth=2;" vertex="1" parent="1">
          <mxGeometry x="240" y="260" width="80" height="80" as="geometry" />
        </mxCell>
        <mxCell id="nkQmbLQ5aovZRFHdUpuh-31" style="edgeStyle=orthogonalEdgeStyle;rounded=0;orthogonalLoop=1;jettySize=auto;html=1;" edge="1" parent="1" source="nkQmbLQ5aovZRFHdUpuh-11" target="nkQmbLQ5aovZRFHdUpuh-4">
          <mxGeometry relative="1" as="geometry">
            <mxPoint x="110" y="190" as="targetPoint" />
            <Array as="points">
              <mxPoint x="140" y="240" />
              <mxPoint x="410" y="240" />
            </Array>
          </mxGeometry>
        </mxCell>
        <mxCell id="nkQmbLQ5aovZRFHdUpuh-11" value="masukkan password dan username untuk akun baru" style="shape=parallelogram;perimeter=parallelogramPerimeter;whiteSpace=wrap;html=1;fixedSize=1;strokeWidth=2;" vertex="1" parent="1">
          <mxGeometry x="20" y="270" width="180" height="60" as="geometry" />
        </mxCell>
        <mxCell id="nkQmbLQ5aovZRFHdUpuh-17" value="" style="edgeStyle=orthogonalEdgeStyle;rounded=0;orthogonalLoop=1;jettySize=auto;html=1;" edge="1" parent="1" source="nkQmbLQ5aovZRFHdUpuh-14" target="nkQmbLQ5aovZRFHdUpuh-16">
          <mxGeometry relative="1" as="geometry" />
        </mxCell>
        <mxCell id="nkQmbLQ5aovZRFHdUpuh-14" value="if user" style="strokeWidth=2;html=1;shape=mxgraph.flowchart.decision;whiteSpace=wrap;" vertex="1" parent="1">
          <mxGeometry x="680" y="370" width="100" height="100" as="geometry" />
        </mxCell>
        <mxCell id="nkQmbLQ5aovZRFHdUpuh-20" value="" style="edgeStyle=orthogonalEdgeStyle;rounded=0;orthogonalLoop=1;jettySize=auto;html=1;" edge="1" parent="1" source="nkQmbLQ5aovZRFHdUpuh-16" target="nkQmbLQ5aovZRFHdUpuh-19">
          <mxGeometry relative="1" as="geometry" />
        </mxCell>
        <mxCell id="nkQmbLQ5aovZRFHdUpuh-53" style="edgeStyle=orthogonalEdgeStyle;rounded=0;orthogonalLoop=1;jettySize=auto;html=1;exitX=0.75;exitY=1;exitDx=0;exitDy=0;" edge="1" parent="1" source="nkQmbLQ5aovZRFHdUpuh-16" target="nkQmbLQ5aovZRFHdUpuh-42">
          <mxGeometry relative="1" as="geometry">
            <Array as="points">
              <mxPoint x="760" y="650" />
              <mxPoint x="860" y="650" />
            </Array>
          </mxGeometry>
        </mxCell>
        <mxCell id="nkQmbLQ5aovZRFHdUpuh-56" style="edgeStyle=orthogonalEdgeStyle;rounded=0;orthogonalLoop=1;jettySize=auto;html=1;entryX=0;entryY=0.5;entryDx=0;entryDy=0;entryPerimeter=0;" edge="1" parent="1" source="nkQmbLQ5aovZRFHdUpuh-16" target="nkQmbLQ5aovZRFHdUpuh-52">
          <mxGeometry relative="1" as="geometry">
            <mxPoint x="930" y="600" as="targetPoint" />
            <Array as="points">
              <mxPoint x="790" y="500" />
            </Array>
          </mxGeometry>
        </mxCell>
        <mxCell id="nkQmbLQ5aovZRFHdUpuh-16" value="Masukkan pilihan menu" style="shape=parallelogram;perimeter=parallelogramPerimeter;whiteSpace=wrap;html=1;fixedSize=1;strokeWidth=2;" vertex="1" parent="1">
          <mxGeometry x="670" y="570" width="120" height="60" as="geometry" />
        </mxCell>
        <mxCell id="nkQmbLQ5aovZRFHdUpuh-22" value="" style="edgeStyle=orthogonalEdgeStyle;rounded=0;orthogonalLoop=1;jettySize=auto;html=1;" edge="1" parent="1" source="nkQmbLQ5aovZRFHdUpuh-19" target="nkQmbLQ5aovZRFHdUpuh-21">
          <mxGeometry relative="1" as="geometry" />
        </mxCell>
        <mxCell id="nkQmbLQ5aovZRFHdUpuh-19" value="Jika 1" style="rhombus;whiteSpace=wrap;html=1;strokeWidth=2;" vertex="1" parent="1">
          <mxGeometry x="690" y="670" width="80" height="80" as="geometry" />
        </mxCell>
        <mxCell id="nkQmbLQ5aovZRFHdUpuh-24" style="edgeStyle=orthogonalEdgeStyle;rounded=0;orthogonalLoop=1;jettySize=auto;html=1;" edge="1" parent="1" source="nkQmbLQ5aovZRFHdUpuh-21" target="nkQmbLQ5aovZRFHdUpuh-16">
          <mxGeometry relative="1" as="geometry">
            <mxPoint x="640" y="600" as="targetPoint" />
            <mxPoint x="680" y="889.9999999999998" as="sourcePoint" />
            <Array as="points">
              <mxPoint x="610" y="820" />
              <mxPoint x="610" y="600" />
            </Array>
          </mxGeometry>
        </mxCell>
        <mxCell id="nkQmbLQ5aovZRFHdUpuh-21" value="output munculkan daftar produk" style="shape=parallelogram;perimeter=parallelogramPerimeter;whiteSpace=wrap;html=1;fixedSize=1;strokeWidth=2;" vertex="1" parent="1">
          <mxGeometry x="650" y="780" width="160" height="60" as="geometry" />
        </mxCell>
        <mxCell id="nkQmbLQ5aovZRFHdUpuh-51" value="" style="edgeStyle=orthogonalEdgeStyle;rounded=0;orthogonalLoop=1;jettySize=auto;html=1;" edge="1" parent="1" source="nkQmbLQ5aovZRFHdUpuh-25" target="nkQmbLQ5aovZRFHdUpuh-27">
          <mxGeometry relative="1" as="geometry" />
        </mxCell>
        <mxCell id="nkQmbLQ5aovZRFHdUpuh-25" value="Jika 2" style="rhombus;whiteSpace=wrap;html=1;strokeWidth=2;" vertex="1" parent="1">
          <mxGeometry x="490" y="550" width="80" height="80" as="geometry" />
        </mxCell>
        <mxCell id="nkQmbLQ5aovZRFHdUpuh-27" value="output daftar membership" style="shape=parallelogram;html=1;strokeWidth=2;perimeter=parallelogramPerimeter;whiteSpace=wrap;rounded=1;arcSize=12;size=0.23;" vertex="1" parent="1">
          <mxGeometry x="360" y="560" width="100" height="60" as="geometry" />
        </mxCell>
        <mxCell id="nkQmbLQ5aovZRFHdUpuh-35" value="" style="edgeStyle=orthogonalEdgeStyle;rounded=0;orthogonalLoop=1;jettySize=auto;html=1;" edge="1" parent="1" source="nkQmbLQ5aovZRFHdUpuh-32" target="nkQmbLQ5aovZRFHdUpuh-34">
          <mxGeometry relative="1" as="geometry" />
        </mxCell>
        <mxCell id="nkQmbLQ5aovZRFHdUpuh-32" value="logout" style="rhombus;whiteSpace=wrap;html=1;strokeWidth=2;rounded=1;arcSize=12;" vertex="1" parent="1">
          <mxGeometry x="550" y="260" width="80" height="80" as="geometry" />
        </mxCell>
        <mxCell id="nkQmbLQ5aovZRFHdUpuh-48" value="" style="edgeStyle=orthogonalEdgeStyle;rounded=0;orthogonalLoop=1;jettySize=auto;html=1;" edge="1" parent="1" source="nkQmbLQ5aovZRFHdUpuh-34" target="nkQmbLQ5aovZRFHdUpuh-47">
          <mxGeometry relative="1" as="geometry" />
        </mxCell>
        <mxCell id="nkQmbLQ5aovZRFHdUpuh-34" value="output anda memilih untuk keluar" style="shape=parallelogram;perimeter=parallelogramPerimeter;whiteSpace=wrap;html=1;fixedSize=1;strokeWidth=2;rounded=1;arcSize=12;" vertex="1" parent="1">
          <mxGeometry x="690" y="270" width="150" height="60" as="geometry" />
        </mxCell>
        <mxCell id="nkQmbLQ5aovZRFHdUpuh-54" style="edgeStyle=orthogonalEdgeStyle;rounded=0;orthogonalLoop=1;jettySize=auto;html=1;entryX=0;entryY=0.75;entryDx=0;entryDy=0;" edge="1" parent="1" source="nkQmbLQ5aovZRFHdUpuh-42" target="nkQmbLQ5aovZRFHdUpuh-43">
          <mxGeometry relative="1" as="geometry" />
        </mxCell>
        <mxCell id="nkQmbLQ5aovZRFHdUpuh-42" value="Jika 3" style="strokeWidth=2;html=1;shape=mxgraph.flowchart.decision;whiteSpace=wrap;" vertex="1" parent="1">
          <mxGeometry x="810" y="660" width="100" height="100" as="geometry" />
        </mxCell>
        <mxCell id="nkQmbLQ5aovZRFHdUpuh-45" style="edgeStyle=orthogonalEdgeStyle;rounded=0;orthogonalLoop=1;jettySize=auto;html=1;entryX=0.5;entryY=0;entryDx=0;entryDy=0;exitX=0;exitY=0.5;exitDx=0;exitDy=0;" edge="1" parent="1" source="nkQmbLQ5aovZRFHdUpuh-27" target="nkQmbLQ5aovZRFHdUpuh-16">
          <mxGeometry relative="1" as="geometry">
            <mxPoint x="310" y="500" as="targetPoint" />
            <Array as="points">
              <mxPoint x="320" y="590" />
              <mxPoint x="320" y="500" />
              <mxPoint x="730" y="500" />
            </Array>
          </mxGeometry>
        </mxCell>
        <mxCell id="nkQmbLQ5aovZRFHdUpuh-55" style="edgeStyle=orthogonalEdgeStyle;rounded=0;orthogonalLoop=1;jettySize=auto;html=1;entryX=0.938;entryY=0.382;entryDx=0;entryDy=0;entryPerimeter=0;" edge="1" parent="1" source="nkQmbLQ5aovZRFHdUpuh-43" target="nkQmbLQ5aovZRFHdUpuh-16">
          <mxGeometry relative="1" as="geometry">
            <mxPoint x="1020" y="660" as="targetPoint" />
            <Array as="points">
              <mxPoint x="950" y="640" />
              <mxPoint x="783" y="640" />
            </Array>
          </mxGeometry>
        </mxCell>
        <mxCell id="nkQmbLQ5aovZRFHdUpuh-43" value="output daftar addons" style="shape=parallelogram;perimeter=parallelogramPerimeter;whiteSpace=wrap;html=1;fixedSize=1;strokeWidth=2;" vertex="1" parent="1">
          <mxGeometry x="890" y="740" width="140" height="60" as="geometry" />
        </mxCell>
        <mxCell id="nkQmbLQ5aovZRFHdUpuh-47" value="END" style="strokeWidth=2;html=1;shape=mxgraph.flowchart.terminator;whiteSpace=wrap;" vertex="1" parent="1">
          <mxGeometry x="870" y="270" width="100" height="60" as="geometry" />
        </mxCell>
        <mxCell id="nkQmbLQ5aovZRFHdUpuh-50" style="edgeStyle=orthogonalEdgeStyle;rounded=0;orthogonalLoop=1;jettySize=auto;html=1;exitX=0;exitY=0.25;exitDx=0;exitDy=0;entryX=0.921;entryY=0.49;entryDx=0;entryDy=0;entryPerimeter=0;" edge="1" parent="1" source="nkQmbLQ5aovZRFHdUpuh-16" target="nkQmbLQ5aovZRFHdUpuh-25">
          <mxGeometry relative="1" as="geometry" />
        </mxCell>
        <mxCell id="nkQmbLQ5aovZRFHdUpuh-57" style="edgeStyle=orthogonalEdgeStyle;rounded=0;orthogonalLoop=1;jettySize=auto;html=1;" edge="1" parent="1" source="nkQmbLQ5aovZRFHdUpuh-52">
          <mxGeometry relative="1" as="geometry">
            <mxPoint x="410" y="270" as="targetPoint" />
            <Array as="points">
              <mxPoint x="1010" y="500" />
              <mxPoint x="1010" y="400" />
              <mxPoint x="1011" y="400" />
              <mxPoint x="1011" y="240" />
              <mxPoint x="410" y="240" />
            </Array>
          </mxGeometry>
        </mxCell>
        <mxCell id="nkQmbLQ5aovZRFHdUpuh-52" value="Jika 4" style="strokeWidth=2;html=1;shape=mxgraph.flowchart.decision;whiteSpace=wrap;" vertex="1" parent="1">
          <mxGeometry x="810" y="450" width="100" height="100" as="geometry" />
        </mxCell>
        <mxCell id="nkQmbLQ5aovZRFHdUpuh-63" value="" style="edgeStyle=orthogonalEdgeStyle;rounded=0;orthogonalLoop=1;jettySize=auto;html=1;" edge="1" parent="1" source="nkQmbLQ5aovZRFHdUpuh-6" target="nkQmbLQ5aovZRFHdUpuh-62">
          <mxGeometry relative="1" as="geometry">
            <mxPoint x="210" y="480" as="targetPoint" />
            <mxPoint x="565" y="450" as="sourcePoint" />
            <Array as="points">
              <mxPoint x="565" y="470" />
            </Array>
          </mxGeometry>
        </mxCell>
        <mxCell id="nkQmbLQ5aovZRFHdUpuh-66" value="" style="edgeStyle=orthogonalEdgeStyle;rounded=0;orthogonalLoop=1;jettySize=auto;html=1;" edge="1" parent="1" source="nkQmbLQ5aovZRFHdUpuh-62" target="nkQmbLQ5aovZRFHdUpuh-65">
          <mxGeometry relative="1" as="geometry" />
        </mxCell>
        <mxCell id="nkQmbLQ5aovZRFHdUpuh-62" value="if admin" style="strokeWidth=2;html=1;shape=mxgraph.flowchart.decision;whiteSpace=wrap;" vertex="1" parent="1">
          <mxGeometry x="200" y="420" width="100" height="100" as="geometry" />
        </mxCell>
        <mxCell id="nkQmbLQ5aovZRFHdUpuh-68" value="" style="edgeStyle=orthogonalEdgeStyle;rounded=0;orthogonalLoop=1;jettySize=auto;html=1;" edge="1" parent="1" source="nkQmbLQ5aovZRFHdUpuh-65" target="nkQmbLQ5aovZRFHdUpuh-67">
          <mxGeometry relative="1" as="geometry" />
        </mxCell>
        <mxCell id="nkQmbLQ5aovZRFHdUpuh-73" value="" style="edgeStyle=orthogonalEdgeStyle;rounded=0;orthogonalLoop=1;jettySize=auto;html=1;" edge="1" parent="1" source="nkQmbLQ5aovZRFHdUpuh-65" target="nkQmbLQ5aovZRFHdUpuh-72">
          <mxGeometry relative="1" as="geometry" />
        </mxCell>
        <mxCell id="nkQmbLQ5aovZRFHdUpuh-76" style="edgeStyle=orthogonalEdgeStyle;rounded=0;orthogonalLoop=1;jettySize=auto;html=1;entryX=0.5;entryY=0.1;entryDx=0;entryDy=0;entryPerimeter=0;" edge="1" parent="1" source="nkQmbLQ5aovZRFHdUpuh-65" target="nkQmbLQ5aovZRFHdUpuh-77">
          <mxGeometry relative="1" as="geometry">
            <mxPoint x="330.0000000000002" y="680" as="targetPoint" />
            <Array as="points">
              <mxPoint x="350" y="610" />
            </Array>
          </mxGeometry>
        </mxCell>
        <mxCell id="nkQmbLQ5aovZRFHdUpuh-87" style="edgeStyle=orthogonalEdgeStyle;rounded=0;orthogonalLoop=1;jettySize=auto;html=1;exitX=0;exitY=0.75;exitDx=0;exitDy=0;" edge="1" parent="1" source="nkQmbLQ5aovZRFHdUpuh-65">
          <mxGeometry relative="1" as="geometry">
            <mxPoint x="129.99999999999977" y="780" as="targetPoint" />
            <Array as="points">
              <mxPoint x="196" y="660" />
              <mxPoint x="131" y="660" />
              <mxPoint x="131" y="780" />
            </Array>
          </mxGeometry>
        </mxCell>
        <mxCell id="nkQmbLQ5aovZRFHdUpuh-89" style="edgeStyle=orthogonalEdgeStyle;rounded=0;orthogonalLoop=1;jettySize=auto;html=1;exitX=0.25;exitY=0;exitDx=0;exitDy=0;entryX=0.5;entryY=1;entryDx=0;entryDy=0;entryPerimeter=0;" edge="1" parent="1" source="nkQmbLQ5aovZRFHdUpuh-65" target="nkQmbLQ5aovZRFHdUpuh-90">
          <mxGeometry relative="1" as="geometry">
            <mxPoint x="119.99999999999977" y="459.9999999999999" as="targetPoint" />
          </mxGeometry>
        </mxCell>
        <mxCell id="nkQmbLQ5aovZRFHdUpuh-65" value="Masukkan pilihan admin" style="shape=parallelogram;perimeter=parallelogramPerimeter;whiteSpace=wrap;html=1;fixedSize=1;strokeWidth=2;" vertex="1" parent="1">
          <mxGeometry x="190" y="580" width="120" height="60" as="geometry" />
        </mxCell>
        <mxCell id="nkQmbLQ5aovZRFHdUpuh-70" value="" style="edgeStyle=orthogonalEdgeStyle;rounded=0;orthogonalLoop=1;jettySize=auto;html=1;" edge="1" parent="1" source="nkQmbLQ5aovZRFHdUpuh-67" target="nkQmbLQ5aovZRFHdUpuh-69">
          <mxGeometry relative="1" as="geometry" />
        </mxCell>
        <mxCell id="nkQmbLQ5aovZRFHdUpuh-67" value="Jika 1" style="rhombus;whiteSpace=wrap;html=1;strokeWidth=2;" vertex="1" parent="1">
          <mxGeometry x="210" y="680" width="80" height="80" as="geometry" />
        </mxCell>
        <mxCell id="nkQmbLQ5aovZRFHdUpuh-69" value="Tambah menu" style="shape=parallelogram;perimeter=parallelogramPerimeter;whiteSpace=wrap;html=1;fixedSize=1;strokeWidth=2;" vertex="1" parent="1">
          <mxGeometry x="190" y="810" width="120" height="60" as="geometry" />
        </mxCell>
        <mxCell id="nkQmbLQ5aovZRFHdUpuh-75" value="" style="edgeStyle=orthogonalEdgeStyle;rounded=0;orthogonalLoop=1;jettySize=auto;html=1;" edge="1" parent="1" source="nkQmbLQ5aovZRFHdUpuh-72" target="nkQmbLQ5aovZRFHdUpuh-74">
          <mxGeometry relative="1" as="geometry" />
        </mxCell>
        <mxCell id="nkQmbLQ5aovZRFHdUpuh-72" value="Jika 2" style="rhombus;whiteSpace=wrap;html=1;strokeWidth=2;" vertex="1" parent="1">
          <mxGeometry x="90" y="570" width="80" height="80" as="geometry" />
        </mxCell>
        <mxCell id="nkQmbLQ5aovZRFHdUpuh-85" style="edgeStyle=orthogonalEdgeStyle;rounded=0;orthogonalLoop=1;jettySize=auto;html=1;entryX=0.5;entryY=0;entryDx=0;entryDy=0;" edge="1" parent="1" source="nkQmbLQ5aovZRFHdUpuh-74" target="nkQmbLQ5aovZRFHdUpuh-65">
          <mxGeometry relative="1" as="geometry">
            <mxPoint x="-10" y="540" as="targetPoint" />
            <Array as="points">
              <mxPoint x="10" y="560" />
              <mxPoint x="250" y="560" />
            </Array>
          </mxGeometry>
        </mxCell>
        <mxCell id="nkQmbLQ5aovZRFHdUpuh-74" value="output produk" style="shape=parallelogram;perimeter=parallelogramPerimeter;whiteSpace=wrap;html=1;fixedSize=1;strokeWidth=2;" vertex="1" parent="1">
          <mxGeometry x="-50" y="580" width="120" height="60" as="geometry" />
        </mxCell>
        <mxCell id="nkQmbLQ5aovZRFHdUpuh-82" value="" style="edgeStyle=orthogonalEdgeStyle;rounded=0;orthogonalLoop=1;jettySize=auto;html=1;" edge="1" parent="1" source="nkQmbLQ5aovZRFHdUpuh-77" target="nkQmbLQ5aovZRFHdUpuh-81">
          <mxGeometry relative="1" as="geometry" />
        </mxCell>
        <mxCell id="nkQmbLQ5aovZRFHdUpuh-77" value="Jika 3" style="strokeWidth=2;html=1;shape=mxgraph.flowchart.decision;whiteSpace=wrap;" vertex="1" parent="1">
          <mxGeometry x="310" y="680" width="90" height="80" as="geometry" />
        </mxCell>
        <mxCell id="nkQmbLQ5aovZRFHdUpuh-84" style="edgeStyle=orthogonalEdgeStyle;rounded=0;orthogonalLoop=1;jettySize=auto;html=1;entryX=1;entryY=0.25;entryDx=0;entryDy=0;" edge="1" parent="1" source="nkQmbLQ5aovZRFHdUpuh-81" target="nkQmbLQ5aovZRFHdUpuh-65">
          <mxGeometry relative="1" as="geometry">
            <mxPoint x="500" y="650" as="targetPoint" />
            <Array as="points">
              <mxPoint x="480" y="630" />
              <mxPoint x="305" y="630" />
            </Array>
          </mxGeometry>
        </mxCell>
        <mxCell id="nkQmbLQ5aovZRFHdUpuh-81" value="Edit menu" style="shape=parallelogram;perimeter=parallelogramPerimeter;whiteSpace=wrap;html=1;fixedSize=1;strokeWidth=2;" vertex="1" parent="1">
          <mxGeometry x="420" y="690" width="120" height="60" as="geometry" />
        </mxCell>
        <mxCell id="nkQmbLQ5aovZRFHdUpuh-86" style="edgeStyle=orthogonalEdgeStyle;rounded=0;orthogonalLoop=1;jettySize=auto;html=1;entryX=0.071;entryY=1.021;entryDx=0;entryDy=0;entryPerimeter=0;" edge="1" parent="1" source="nkQmbLQ5aovZRFHdUpuh-69" target="nkQmbLQ5aovZRFHdUpuh-65">
          <mxGeometry relative="1" as="geometry">
            <Array as="points">
              <mxPoint x="170" y="840" />
              <mxPoint x="170" y="725" />
              <mxPoint x="199" y="725" />
            </Array>
          </mxGeometry>
        </mxCell>
        <mxCell id="nkQmbLQ5aovZRFHdUpuh-94" value="" style="edgeStyle=orthogonalEdgeStyle;rounded=0;orthogonalLoop=1;jettySize=auto;html=1;entryX=0.5;entryY=0;entryDx=0;entryDy=0;" edge="1" parent="1" source="nkQmbLQ5aovZRFHdUpuh-88" target="nkQmbLQ5aovZRFHdUpuh-95">
          <mxGeometry relative="1" as="geometry">
            <mxPoint x="79.99999999999977" y="930" as="targetPoint" />
          </mxGeometry>
        </mxCell>
        <mxCell id="nkQmbLQ5aovZRFHdUpuh-88" value="Jika 4" style="strokeWidth=2;html=1;shape=mxgraph.flowchart.decision;whiteSpace=wrap;" vertex="1" parent="1">
          <mxGeometry x="30" y="730" width="100" height="100" as="geometry" />
        </mxCell>
        <mxCell id="nkQmbLQ5aovZRFHdUpuh-92" style="edgeStyle=orthogonalEdgeStyle;rounded=0;orthogonalLoop=1;jettySize=auto;html=1;" edge="1" parent="1" source="nkQmbLQ5aovZRFHdUpuh-90" target="nkQmbLQ5aovZRFHdUpuh-4">
          <mxGeometry relative="1" as="geometry">
            <mxPoint x="330" y="320" as="targetPoint" />
            <Array as="points">
              <mxPoint x="120" y="360" />
              <mxPoint x="310" y="360" />
              <mxPoint x="310" y="320" />
            </Array>
          </mxGeometry>
        </mxCell>
        <mxCell id="nkQmbLQ5aovZRFHdUpuh-90" value="Jika 5" style="strokeWidth=2;html=1;shape=mxgraph.flowchart.decision;whiteSpace=wrap;" vertex="1" parent="1">
          <mxGeometry x="70" y="400" width="100" height="100" as="geometry" />
        </mxCell>
        <mxCell id="nkQmbLQ5aovZRFHdUpuh-98" style="edgeStyle=orthogonalEdgeStyle;rounded=0;orthogonalLoop=1;jettySize=auto;html=1;entryX=0.25;entryY=1;entryDx=0;entryDy=0;" edge="1" parent="1" source="nkQmbLQ5aovZRFHdUpuh-95" target="nkQmbLQ5aovZRFHdUpuh-65">
          <mxGeometry relative="1" as="geometry">
            <mxPoint x="-20.000000000000227" y="680" as="targetPoint" />
            <Array as="points">
              <mxPoint x="-50" y="910" />
              <mxPoint x="-50" y="680" />
              <mxPoint x="220" y="680" />
            </Array>
          </mxGeometry>
        </mxCell>
        <mxCell id="nkQmbLQ5aovZRFHdUpuh-95" value="Menghapus data yang dipilih" style="rounded=1;whiteSpace=wrap;html=1;absoluteArcSize=1;arcSize=14;strokeWidth=2;" vertex="1" parent="1">
          <mxGeometry x="30" y="860" width="100" height="100" as="geometry" />
        </mxCell>
      </root>
    </mxGraphModel>
  </diagram>
</mxfile>
